<svg xmlns="http://www.w3.org/2000/svg" viewBox="0 0 943.02 504.75" xmlns:v="https://vecta.io/nano"><defs><linearGradient id="A" x1="422.95" y1="85.54" x2="532.62" y2="444.25" gradientUnits="userSpaceOnUse"><stop offset="0" stop-color="#fff" stop-opacity=".8"/><stop offset="0" stop-color="#fffdfd" stop-opacity=".8"/><stop offset=".24" stop-color="#ffc8be" stop-opacity=".87"/><stop offset=".46" stop-color="#ff9f8d" stop-opacity=".93"/><stop offset=".66" stop-color="#ff8269" stop-opacity=".97"/><stop offset=".85" stop-color="#ff7054" stop-opacity=".99"/><stop offset="1" stop-color="#ff6a4d"/></linearGradient></defs><path d="M159.36 173c-12.71 10.37-24.98 21.27-36.9 32.51-11.93 11.23-23.51 22.82-34.6 34.85-11.07 12.04-21.72 24.45-31.62 37.41-9.88 12.96-19.03 26.47-26.83 40.66-7.77 14.17-14.32 29.05-17.95 44.56-1.81 7.74-2.86 15.61-2.86 23.43-.01 3.91.28 7.8.81 11.64.57 3.83 1.43 7.68 2.47 11.42 4.21 15.02 12.81 28.49 24.28 39.06 11.46 10.63 25.43 18.55 40.15 24.55 14.77 5.98 30.37 10.11 46.19 13.04 15.83 2.91 31.92 4.72 48.06 5.56 16.14.83 32.37.79 48.42-.31l5.99-.49 6.05-.61 12.24-1.26 24.4-2.65c32.48-3.71 64.86-8.12 96.99-13.85 32.13-5.69 64.04-12.54 95.43-21.14 15.7-4.28 31.27-8.99 46.63-14.25 7.68-2.63 15.31-5.4 22.87-8.32l5.66-2.22c1.89-.73 3.77-1.48 5.65-2.28l11.31-4.71c15.26-6.15 30.2-12.55 45.14-19.18 14.93-6.61 29.67-13.62 44.35-20.75 58.6-28.68 115.19-61.81 167.14-101.12 25.9-19.71 50.46-41.24 72.13-65.34 2.65-3.06 5.36-6.05 7.91-9.23l3.87-4.7c1.25-1.54 2.49-3.13 3.7-4.73 4.86-6.42 9.43-13.1 13.69-19.97 8.49-13.73 15.81-28.24 20.86-43.48 2.52-7.61 4.43-15.41 5.43-23.31 1-7.89 1.05-15.9-.24-23.7-1.25-7.79-3.96-15.32-7.81-22.3-3.86-6.96-8.8-13.35-14.45-19.08-11.38-11.44-25.37-20.22-40.12-27.13-7.38-3.48-15-6.49-22.75-9.1-7.77-2.58-15.66-4.84-23.69-6.5 8.11 1.26 16.12 3.17 24.02 5.45 7.9 2.3 15.69 5 23.29 8.21 15.15 6.44 29.73 14.84 41.96 26.28 6.08 5.73 11.52 12.24 15.83 19.52 4.3 7.25 7.47 15.3 9.07 23.67 1.64 8.36 1.83 16.93 1.01 25.33-.81 8.41-2.59 16.67-4.99 24.71-4.87 16.07-12.13 31.21-20.54 45.57-4.23 7.18-8.77 14.16-13.66 20.93l-3.77 5.05-3.84 4.88c-2.51 3.27-5.23 6.43-7.88 9.64-10.78 12.65-22.46 24.46-34.58 35.75-12.13 11.29-24.8 21.94-37.77 32.19-12.98 10.24-26.31 20.02-39.88 29.42-13.59 9.38-27.46 18.36-41.53 26.98s-28.34 16.91-42.77 24.91a1140.24 1140.24 0 0 1-43.78 23.06c-14.74 7.39-29.63 14.49-44.67 21.25-15.02 6.76-30.21 13.35-45.36 19.54l-11.4 4.78c-1.89.81-3.82 1.58-5.75 2.34l-5.79 2.29c-7.74 3-15.53 5.85-23.36 8.54-15.67 5.39-31.51 10.22-47.46 14.59-63.86 17.33-129.21 27.75-194.68 34.63l-24.55 2.42-12.25 1.14-6.2.56-6.28.45c-16.7.98-33.34.85-49.95-.18-16.61-1.05-33.19-3.01-49.58-6.29-16.37-3.32-32.59-7.88-48.15-14.48-15.49-6.62-30.44-15.34-42.89-27.28-6.21-5.95-11.72-12.71-16.19-20.13-2.25-3.7-4.16-7.6-5.86-11.57-1.63-4.01-3.04-8.1-4.12-12.27-1.06-4.19-1.89-8.37-2.43-12.67-.5-4.29-.71-8.61-.6-12.9.2-8.59 1.55-17.05 3.66-25.24 4.26-16.39 11.4-31.68 19.78-46.02 8.44-14.33 18.16-27.78 28.54-40.61 10.41-12.82 21.48-25.05 33.07-36.74 23.19-23.35 47.97-45.07 74.29-64.69z" fill="url(#A)"/></svg>