<svg xmlns="http://www.w3.org/2000/svg" viewBox="0 0 603.81 155.33" xmlns:v="https://vecta.io/nano"><path d="M603.81 112.47c-138.99 50-331.26 52.07-476.46 27.58C98.43 134.69-6.77 115.25.34 75.49 4.14 58.5 26.83 48 41.05 40.98 139.36-3.08 282.47-2.81 389.41 2.33c22.87 1.3 45.71 3.02 68.47 5.53-45.63-3.19-91.43-4.38-137.16-3.92-57.04.7-114.23 3.87-170.51 13.37-36.24 6.26-72.54 14.83-105.89 30.59-4.97 2.37-10.18 5.03-14.93 7.8-6.91 3.97-13.87 8.59-18.53 15.04-6.78 9.18-1.48 17.85 6.71 24.33 4.14 3.35 8.88 6.21 13.79 8.76 30.38 15.02 64.12 22.2 97.37 28.54 144.29 24.66 335.26 24.81 475.08-19.89h0z" fill="#ff6a4d"/></svg>