<svg xmlns="http://www.w3.org/2000/svg" viewBox="0 0 50 50" width="48" fill="#fff" height="48" stroke-linecap="round" stroke-linejoin="round" xmlns:v="https://vecta.io/nano"><path d="M16.165 17.236h.038.025a1.72 1.72 0 0 1 .636 3.32l-.012.004h-.107v1.445c0 .224-.115.419-.288.53l-.002.002h-.639a.65.65 0 0 1-.3-.542v-1.434c-.647-.257-1.096-.878-1.096-1.603a1.72 1.72 0 0 1 1.721-1.721h.027-.001zm-.58-6.493h1.006a3.11 3.11 0 0 1 2.187.905h0c.561.546.91 1.308.912 2.151h0l.004 1.262h-7.21v-1.262a3 3 0 0 1 .912-2.151l.001-.001c.562-.557 1.334-.903 2.188-.906h.001zm0-2.462c-1.544 0-2.94.62-3.955 1.624l.001-.001c-1.016.986-1.646 2.365-1.646 3.89v.005 1.223l-.695 1.253v1.804c.003 1.696.703 3.228 1.829 4.325l.001.001c1.133 1.113 2.688 1.799 4.403 1.799h1.127a6.26 6.26 0 0 0 4.4-1.8l-.001.001c1.129-1.097 1.831-2.63 1.833-4.326v-1.806l-.687-1.253v-1.225c-.002-1.527-.633-2.906-1.648-3.893l-.001-.001a5.6 5.6 0 0 0-3.95-1.623h-.006zm.4-5.707a13.43 13.43 0 0 1 13.43 13.427 13.43 13.43 0 0 1-13.427 13.427A13.43 13.43 0 0 1 2.561 16.001v-.005c0-7.414 6.009-13.423 13.421-13.423h.003zM16 1.004A15 15 0 0 0 1.004 16 15 15 0 0 0 16 30.996 15 15 0 0 0 30.996 16h0A15 15 0 0 0 16 1.004h0z"/></svg>