<svg xmlns="http://www.w3.org/2000/svg" viewBox="0 0 50 50" width="48" fill="#fff" height="48" stroke-linecap="round" stroke-linejoin="round" xmlns:v="https://vecta.io/nano"><path d="M24.563 3.344c-.984 0-3.074.152-5.344 1.156s-4.723 2.918-6.25 6.344c-1.152 2.582-.812 6.34-.625 9.344l.031.625c-.094.043-.012.063-.312.063-.453 0-1.059-.148-1.812-.5-.301-.141-.621-.187-.937-.187-.574 0-1.137.172-1.625.469s-.957.758-1.094 1.469c-.082.438.012 1.094.438 1.625s1.086.965 2.125 1.375l.688.25c.469.148 1.02.309 1.438.531s.664.484.75.688c.094.219.121.559-.187 1.188-.012.02-.023.043-.031.063s-.02.027-.031.063c-.125.281-2.863 6.25-8.562 7.188-.734.121-1.258.762-1.219 1.5.012.215.082.445.156.625.277.652.871 1.133 1.844 1.563.898.398 2.297.75 4.156 1.063.047.129.109.371.188.719 0 .008-.004.023 0 .031.07.324.137.68.25 1.063a1.7 1.7 0 0 0 .75.969c.348.195.676.219.875.219.414 0 .758-.086 1.125-.156.605-.117 1.336-.25 2.281-.25a10.17 10.17 0 0 1 1.625.125c.949.156 1.883.773 3 1.563 1.617 1.145 3.559 2.531 6.469 2.531.051 0 .105-.027.156-.031.051.004.105 0 .156 0 .082.004.168.031.25.031 2.91 0 4.848-1.387 6.469-2.531 1.113-.789 2.051-1.406 3-1.562a10.17 10.17 0 0 1 1.625-.125c.914 0 1.637.117 2.313.25.43.086.758.125 1.094.125h.063a1.63 1.63 0 0 0 .969-.312 1.67 1.67 0 0 0 .594-.844c.113-.383.176-.75.25-1.094.082-.383.145-.59.188-.719 1.859-.312 3.258-.664 4.156-1.062.973-.43 1.566-.914 1.844-1.562.082-.187.145-.41.156-.625a1.45 1.45 0 0 0-1.219-1.5c-2.875-.473-4.984-2.203-6.406-3.875-1.414-1.664-2.117-3.254-2.156-3.344v-.031c-.008-.02-.02-.043-.031-.062-.312-.629-.312-.965-.219-1.187.086-.203.332-.465.75-.687s.965-.383 1.438-.531a10.91 10.91 0 0 0 .688-.25c.91-.359 1.535-.734 1.969-1.187s.633-1.016.625-1.5c-.02-1.023-.781-1.703-1.656-2.031l-.031-.031c-.008-.004-.023.004-.031 0-.359-.145-.738-.219-1.125-.219-.262 0-.625.012-1.062.219-.68.32-1.25.477-1.687.5h-.031c-.027 0-.008.004-.031 0-.129-.016-.09-.039-.156-.062l.031-.5v-.125c.191-3.004.527-6.758-.625-9.344-1.527-3.426-3.977-5.371-6.25-6.375a13.44 13.44 0 0 0-5.344-1.125h-.094-.031zm0 2h.875c.801 0 2.617.125 4.531.969s3.93 2.379 5.25 5.344c.75 1.68.629 5.406.438 8.406v.125l-.094 1.219c-.008.281.105.555.313.75.156.16.813.676 1.906.719h.031.031c.809-.031 1.656-.277 2.531-.687.023-.012.133-.031.219-.031.125 0 .289.031.375.063.008.004.023-.004.031 0 .02.012.043.023.063.031.234.082.344.176.375.219.008.008-.004.027 0 .031-.012.02-.023.02-.062.063-.145.152-.543.426-1.281.719-.121.047-.305.117-.531.188-.473.148-1.145.352-1.781.688s-1.309.832-1.656 1.656c-.371.871-.215 1.828.219 2.75.004.016-.004.02 0 .031.016.043.031.066.031.063.09.207.848 1.973 2.469 3.875 1.457 1.711 3.672 3.48 6.625 4.25-.125.082-.039.078-.281.188-.719.316-1.953.656-3.969.969-.57.086-.996.625-1.156 1s-.242.746-.344 1.219c-.047.219-.105.418-.156.625-.137-.012-.25-.012-.5-.062-.727-.141-1.605-.281-2.687-.281-.641 0-1.281.047-1.937.156-1.535.258-2.73 1.117-3.844 1.906-1.625 1.145-3.008 2.156-5.312 2.156-.094 0-.187.004-.281 0a.67.67 0 0 0-.125 0c-.039.004-.109 0-.156 0-2.305 0-3.695-1.012-5.312-2.156-1.117-.789-2.309-1.652-3.844-1.906-.656-.109-1.297-.156-1.937-.156-1.152 0-2.082.164-2.687.281-.242.047-.332.074-.469.094-.055-.219-.137-.426-.187-.656-.094-.43-.156-.809-.312-1.187-.078-.187-.187-.395-.375-.594s-.465-.359-.781-.406c-2.012-.312-3.281-.684-4-1-.25-.109-.156-.102-.281-.187 6.23-1.609 8.941-7.773 9.094-8.125l.031-.062c.004-.012-.004-.016 0-.031.434-.922.59-1.879.219-2.75-.352-.824-1.02-1.32-1.656-1.656s-1.277-.539-1.75-.687c-.23-.074-.445-.141-.562-.187-.84-.332-1.207-.648-1.312-.781 0 .02-.023-.066.125-.156.164-.098.453-.156.594-.156.078 0 .074.004.063 0 .938.438 1.828.688 2.688.688 1.188 0 1.898-.516 2.094-.719s.297-.473.281-.75c-.023-.437-.066-.883-.094-1.344-.187-3.004-.312-6.727.438-8.406 1.32-2.961 3.309-4.5 5.219-5.344a11.81 11.81 0 0 1 4.563-.969z"/></svg>