<svg xmlns="http://www.w3.org/2000/svg" viewBox="0 0 50 50" width="48" fill="#fff" height="48" stroke-linecap="round" stroke-linejoin="round" xmlns:v="https://vecta.io/nano"><path d="M9 4C6.25 4 4 6.25 4 9v32c0 2.75 2.25 5 5 5h32c2.75 0 5-2.25 5-5V9c0-2.75-2.25-5-5-5H9zm0 2h32a2.98 2.98 0 0 1 3 3v32a2.98 2.98 0 0 1-3 3H9a2.98 2.98 0 0 1-3-3V9a2.98 2.98 0 0 1 3-3zm17.043 4a1 1 0 0 0-1 .998l-.021 9.762-.016 6.73L25 30.594c0 1.815-1.649 3.299-3.527 3.299-1.864 0-3.352-1.49-3.352-3.354s1.488-3.352 3.352-3.352c.063 0 .19.021.408.047A1 1 0 0 0 23 26.24v-4.201a1 1 0 0 0-.937-.998l-.59-.029c-5.25 0-9.527 4.278-9.527 9.527s4.278 9.527 9.527 9.527S31 35.789 31 30.539V21.49c1.455 1.163 3.268 1.9 5.27 1.9a8.47 8.47 0 0 0 .781-.039 1 1 0 0 0 .908-.996v-4.67a1 1 0 0 0-.928-.998 6.48 6.48 0 0 1-5.979-5.791 1 1 0 0 0-.994-.896h-4.016zm.998 2h2.281a8.35 8.35 0 0 0 6.637 6.445v2.865c-2.139-.109-4.017-1.176-5.123-2.857a1 1 0 0 0-1.836.551v11.535c0 4.168-3.359 7.527-7.527 7.527s-7.527-3.359-7.527-7.527c0-4.001 3.121-7.176 7.055-7.432v2.176c-2.714.253-4.879 2.479-4.879 5.256a5.37 5.37 0 0 0 5.352 5.354c2.929 0 5.527-2.306 5.527-5.299 0 .049.002-1.258.006-3.1l.016-6.73.02-8.764z"/></svg>